<svg height="512" viewBox="0 0 512 512" width="512" xmlns="http://www.w3.org/2000/svg"><g><g><path d="m152 336h128v32h-128z" fill="#3e3d42"/><path d="m200 368h32v128h-32z" fill="#d8d7da"/><path d="m184 304h64v32h-64z" fill="#787680"/><path d="m48 128h336v176h-336z" fill="#3e3d42"/><path d="m48 208-32 9v-65l32 8z" fill="#787680"/><path d="m384 168h48v96h-48z" fill="#787680"/><path d="m496 296-64-16v-128l64-16z" fill="#3e3d42"/><path d="m72 152h120v48h-120z" fill="#83d8f4"/><g fill="#ffda44"><path d="m72 224h24v24h-24z"/><path d="m120 224h24v24h-24z"/><path d="m168 224h24v24h-24z"/></g><path d="m240 128h-128l24-48h104z" fill="#787680"/><path d="m480 36v8a19.994 19.994 0 0 1 -20 20h-124v-48h124a19.994 19.994 0 0 1 20 20z" fill="#3e3d42"/><path d="m336 16v44.8l-24 67.2h-32l40-112z" fill="#787680"/></g><g><path d="m500.92 129.69a8 8 0 0 0 -6.86-1.45l-64 16a8 8 0 0 0 -6.06 7.76v8h-32v-32a8 8 0 0 0 -8-8h-60.65l17.15-48h119.5a28.031 28.031 0 0 0 28-28v-8a28.031 28.031 0 0 0 -28-28h-140a7.981 7.981 0 0 0 -7.53 5.31l-38.11 106.69h-26.36v-40a8 8 0 0 0 -8-8h-104a8.011 8.011 0 0 0 -7.16 4.42l-21.78 43.58h-59.06a8 8 0 0 0 -8 8v21.75l-22.06-5.51a8 8 0 0 0 -9.94 7.76v65a7.995 7.995 0 0 0 8 8 8.111 8.111 0 0 0 2.17-.3l21.83-6.14v85.44a8 8 0 0 0 8 8h128v16h-24a8 8 0 0 0 -8 8v32a8 8 0 0 0 8 8h40v37.78l-46.86 78.1a8 8 0 0 0 13.72 8.24l33.14-55.24v51.12a8 8 0 0 0 8 8h32a8 8 0 0 0 8-8v-51.12l33.14 55.24a8 8 0 1 0 13.72-8.24l-46.86-78.1v-37.78h40a8 8 0 0 0 8-8v-32a8 8 0 0 0 -8-8h-24v-16h128a8 8 0 0 0 8-8v-32h32v8a8 8 0 0 0 6.06 7.76l64 16a8 8 0 0 0 9.94-7.76v-160a8 8 0 0 0 -3.08-6.31zm-156.92-105.69h116a12.01 12.01 0 0 1 12 12v8a12.01 12.01 0 0 1 -12 12h-116zm-304 177.94-16 4.5v-44.19l16 4zm285.64-177.94h2.36v35.41l-21.64 60.59h-15.01zm-184.7 64h91.06v32h-107.06zm83.06 400h-16v-112h16zm48-144v16h-112v-16zm-80-16v-16h48v16zm184-32h-320v-160h320zm48-40h-32v-80h32zm64 29.75-48-12v-115.5l48-12z"/><path d="m192 144h-120a8 8 0 0 0 -8 8v48a8 8 0 0 0 8 8h120a8 8 0 0 0 8-8v-48a8 8 0 0 0 -8-8zm-8 48h-104v-32h104z"/><path d="m96 216h-24a8 8 0 0 0 -8 8v24a8 8 0 0 0 8 8h24a8 8 0 0 0 8-8v-24a8 8 0 0 0 -8-8zm-8 24h-8v-8h8z"/><path d="m144 216h-24a8 8 0 0 0 -8 8v24a8 8 0 0 0 8 8h24a8 8 0 0 0 8-8v-24a8 8 0 0 0 -8-8zm-8 24h-8v-8h8z"/><path d="m192 216h-24a8 8 0 0 0 -8 8v24a8 8 0 0 0 8 8h24a8 8 0 0 0 8-8v-24a8 8 0 0 0 -8-8zm-8 24h-8v-8h8z"/></g></g></svg>