<svg id="Layer_1" enable-background="new 0 0 512 512" height="512" viewBox="0 0 512 512" width="512" xmlns="http://www.w3.org/2000/svg"><g><path d="m408.01 52.98v406.04c0 20.98-17.01 37.98-37.98 37.98h-228.05c-20.97 0-37.97-17-37.97-37.98v-406.04c0-20.98 17-37.98 37.97-37.98h228.05c20.97 0 37.98 17 37.98 37.98z" fill="#d7ffff"/><path d="m408.01 52.98v406.04c0 20.98-17.01 37.98-37.98 37.98h-113.56v-482h113.56c20.97 0 37.98 17 37.98 37.98z" fill="#73f8ff"/><g><path d="m370.02 0h-228.04c-29.21 0-52.98 23.77-52.98 52.98v406.04c0 29.21 23.77 52.98 52.98 52.98h228.04c29.21 0 52.98-23.77 52.98-52.98v-406.04c0-29.21-23.77-52.98-52.98-52.98zm22.98 459.02c0 12.67-10.31 22.98-22.98 22.98h-228.04c-12.67 0-22.98-10.31-22.98-22.98v-406.04c0-12.67 10.31-22.98 22.98-22.98h35.24l5.73 13.65c5.08 12.1 16.85 19.92 29.97 19.92h86.16c13.12 0 24.89-7.82 29.97-19.92l5.73-13.65h35.24c12.67 0 22.98 10.31 22.98 22.98z" fill="#454554"/></g><path d="m302.69 445.64c0 8.28-6.72 15-15 15h-63.38c-8.28 0-15-6.72-15-15s6.72-15 15-15h63.38c8.28 0 15 6.72 15 15z" fill="#454554"/><path d="m287.69 460.64h-31.22v-30h31.22c8.28 0 15 6.72 15 15s-6.72 15-15 15z" fill="#2e2e2e"/><path d="m423 52.98v406.04c0 29.21-23.77 52.98-52.98 52.98h-113.55v-30h113.55c12.67 0 22.98-10.31 22.98-22.98v-406.04c0-12.67-10.31-22.98-22.98-22.98h-35.24l-5.73 13.65c-5.08 12.1-16.85 19.92-29.97 19.92h-42.61v-63.57h113.55c29.21 0 52.98 23.77 52.98 52.98z" fill="#2e2e2e"/><g><path d="m322.55 327.13c0 36.53-29.61 66.28-66.08 66.53-.16.01-.31.01-.47.01-36.69 0-66.55-29.85-66.55-66.54 0-18.85 8.05-36.89 22.07-49.5 2.75-2.47 6.32-3.84 10.03-3.84l34.92-.01h33.98c3.7 0 7.28 1.37 10.03 3.85 14.02 12.61 22.07 30.65 22.07 49.5z" fill="#71e1ff"/><path d="m322.55 327.13c0 36.53-29.61 66.28-66.08 66.53v-119.88h33.98c3.7 0 7.28 1.37 10.03 3.85 14.02 12.61 22.07 30.65 22.07 49.5z" fill="#58adf9"/><path d="m322.55 250.44c0 36.54-29.61 66.29-66.08 66.54-.16.01-.31.01-.47.01-36.69 0-66.55-29.85-66.55-66.55 0-18.85 8.05-36.89 22.07-49.5 2.75-2.47 6.33-3.84 10.03-3.84h68.9c3.7 0 7.27 1.37 10.03 3.84 14.02 12.61 22.07 30.65 22.07 49.5z" fill="#ace233"/><path d="m256.47 316.98v-119.88h33.98c3.7 0 7.27 1.37 10.03 3.84 14.02 12.61 22.07 30.65 22.07 49.5 0 36.54-29.61 66.29-66.08 66.54z" fill="#00da80"/><path d="m322.55 173.76c0 36.69-29.39 66.55-66.08 66.55s-67.02-29.86-67.02-66.55 30.33-66.55 67.02-66.55 66.08 29.86 66.08 66.55z" fill="#ff7d47"/><path d="m256.47 240.31v-133.1c36.69 0 66.08 29.86 66.08 66.55s-29.39 66.55-66.08 66.55z" fill="#ff405c"/></g></g></svg>